HIERARCHY
ROOT hip
{
	OFFSET 0.000000 0.000000 0.000000
	CHANNELS 6 Xposition Yposition Zposition Xrotation Zrotation Yrotation 
	JOINT abdomen
	{
		OFFSET 0.000000 3.422050 0.000000
		CHANNELS 3 Xrotation Zrotation Yrotation 
		JOINT chest
		{
			OFFSET 0.000000 8.486693 -0.684411
			CHANNELS 3 Xrotation Zrotation Yrotation 
			JOINT neck
			{
				OFFSET 0.000000 10.266162 -0.273764
				CHANNELS 3 Xrotation Zrotation Yrotation 
				JOINT head
				{
					OFFSET 0.000000 3.148285 0.000000
					CHANNELS 3 Xrotation Zrotation Yrotation 
					End Site
					{
						OFFSET 0.000000 3.148289 0.000000
					}
				}
			}
			JOINT lCollar
			{
				OFFSET 3.422053 6.707223 -0.821293
				CHANNELS 3 Yrotation Zrotation Xrotation 
				JOINT lShldr
				{
					OFFSET 3.285171 0.000000 0.000000
					CHANNELS 3 Zrotation Yrotation Xrotation 
					JOINT lForeArm
					{
						OFFSET 10.129278 0.000000 0.000000
						CHANNELS 3 Yrotation Zrotation Xrotation 
						JOINT lHand
						{
							OFFSET 8.486692 0.000000 0.000000
							CHANNELS 3 Zrotation Yrotation Xrotation 
							End Site
							{
								OFFSET 4.106464 0.000000 0.000000
							}
						}
					}
				}
			}
			JOINT rCollar
			{
				OFFSET -3.558935 6.707223 -0.821293
				CHANNELS 3 Yrotation Zrotation Xrotation 
				JOINT rShldr
				{
					OFFSET -3.148289 0.000000 0.000000
					CHANNELS 3 Zrotation Yrotation Xrotation 
					JOINT rForeArm
					{
						OFFSET -10.266159 0.000000 0.000000
						CHANNELS 3 Yrotation Zrotation Xrotation 
						JOINT rHand
						{
							OFFSET -8.349810 0.000000 0.000000
							CHANNELS 3 Zrotation Yrotation Xrotation 
							End Site
							{
								OFFSET -4.106464 0.000000 0.000000
							}
						}
					}
				}
			}
		}
	}
	JOINT lThigh
	{
		OFFSET 5.338403 -1.642589 1.368821
		CHANNELS 3 Xrotation Zrotation Yrotation 
		JOINT lShin
		{
			OFFSET -2.053232 -20.121670 0.000000
			CHANNELS 3 Xrotation Zrotation Yrotation 
			JOINT lFoot
			{
				OFFSET 0.000000 -19.300381 -1.231939
				CHANNELS 3 Xrotation Yrotation Zrotation 
				End Site
				{
					OFFSET 0.000000 -2.463878 4.653993
				}
			}
		}
	}
	JOINT rThigh
	{
		OFFSET -5.338403 -1.642589 1.368821
		CHANNELS 3 Xrotation Zrotation Yrotation 
		JOINT rShin
		{
			OFFSET 2.053232 -20.121670 0.000000
			CHANNELS 3 Xrotation Zrotation Yrotation 
			JOINT rFoot
			{
				OFFSET 0.000000 -19.300381 -1.231939
				CHANNELS 3 Xrotation Yrotation Zrotation 
				End Site
				{
					OFFSET 0.000000 -2.463878 4.653993
				}
			}
		}
	}
}
MOTION
Frames:	8
Frame Time:	0.250000
-6.000000 46.000000 -5.000000 0.000000 0.000000 1.000000 3.000000 0.000000 -2.000000 -12.000000 0.000000 0.000000 8.000000 0.000000 -2.000000 -20.000000 20.000000 1.000000 7.200000 -1.500000 -7.500000 -84.000000 -11.000000 -32.000000 -146.000000 5.000000 -4.000000 20.000000 20.000000 30.000000 -2.000000 0.000000 0.000000 60.000000 40.000000 -29.000000 93.000000 3.000000 -20.000000 25.000000 0.000000 -1.000000 1.000000 9.200000 -0.468043 16.133333 -2.343591 -1.284068 22.318806 8.000000 0.853471 -1.415801 -0.099207 0.855532 9.942879 1.404574 -0.821872 19.052923 0.584050 -0.616488 
-7.000000 46.000000 -5.000000 0.000000 0.000000 1.000000 3.000000 0.000000 -2.000000 -12.000000 0.000000 0.000000 8.000000 0.000000 -2.000000 -20.000000 20.000000 1.000000 7.400000 -1.000000 -6.666666 -84.000000 -11.000000 -32.000000 -146.000000 5.000000 -1.333333 20.000000 20.000000 30.000000 -2.000000 0.000000 0.000000 60.000000 40.000000 -29.000000 93.000000 2.666667 -20.000000 25.000000 0.000000 -1.000000 1.000000 10.400000 -0.468043 17.266666 -2.343591 -1.284068 23.307812 8.000000 0.853471 -1.415801 -0.115742 0.855532 9.766693 1.404574 -0.821872 18.931232 0.584050 -0.616488 
-8.000000 46.000000 -5.000000 0.000000 0.000000 1.000000 3.000000 0.000000 -2.000000 -12.000000 0.000000 0.000000 8.000000 0.000000 -2.000000 -20.000000 20.000000 1.000000 7.600000 -0.500000 -5.833333 -84.000000 -11.000000 -32.000000 -146.000000 5.000000 1.333333 20.000000 20.000000 30.000000 -2.000000 0.000000 0.000000 60.000000 40.000000 -29.000000 93.000000 2.333333 -20.000000 25.000000 0.000000 -1.000000 1.000000 11.600000 -0.468043 18.400000 -2.343591 -1.284068 24.296818 8.000000 0.853471 -1.415801 -0.132276 0.855532 9.590506 1.404574 -0.821872 18.809540 0.584050 -0.616488 
-9.000000 46.000000 -5.000000 0.000000 0.000000 1.000000 3.000000 0.000000 -2.000000 -12.000000 0.000000 0.000000 8.000000 0.000000 -2.000000 -20.000000 20.000000 1.000000 7.800000 0.000000 -5.000000 -84.000000 -11.000000 -32.000000 -146.000000 5.000000 4.000000 20.000000 20.000000 30.000000 -2.000000 0.000000 0.000000 60.000000 40.000000 -29.000000 93.000000 2.000000 -20.000000 25.000000 0.000000 -1.000000 1.000000 12.800000 -0.468043 19.533333 -2.343591 -1.284068 25.285826 8.000000 0.853471 -1.415801 -0.148811 0.855532 9.414319 1.404574 -0.821872 18.687847 0.584050 -0.616488 
-10.000000 46.000000 -5.000000 0.000000 0.000000 1.000000 3.000000 0.000000 -2.000000 -12.000000 0.000000 0.000000 8.000000 0.000000 -2.000000 -20.000000 20.000000 1.000000 8.000000 0.500000 -4.166667 -84.000000 -11.000000 -32.000000 -146.000000 5.000000 6.666667 20.000000 20.000000 30.000000 -2.000000 0.000000 0.000000 60.000000 40.000000 -29.000000 93.000000 1.666667 -20.000000 25.000000 0.000000 -1.000000 1.000000 14.000000 -0.468043 20.666668 -2.343591 -1.284068 26.274832 8.000000 0.853471 -1.415801 -0.165345 0.855532 9.238132 1.404574 -0.821872 18.566154 0.584050 -0.616488 
-9.500000 46.000000 -5.000000 0.000000 0.000000 1.000000 3.000000 0.000000 -2.000000 -12.000000 0.000000 0.000000 7.822222 0.000000 -2.000000 -19.866667 18.600000 1.000000 8.200000 1.000000 -3.333333 -84.000000 -11.000000 -32.000000 -146.000000 5.000000 9.333333 20.000000 20.000000 30.000000 -2.000000 0.000000 0.000000 60.000000 40.000000 -29.000000 93.000000 1.333333 -20.000000 25.000000 0.000000 -1.000000 1.000000 11.000000 -0.468043 21.799999 -2.343591 -1.284068 27.263838 8.000000 0.853471 -1.415801 -0.181880 0.855532 9.061946 1.404574 -0.821872 18.444464 0.584050 -0.616488 
-9.000000 46.000000 -5.000000 0.000000 0.000000 1.000000 3.000000 0.000000 -2.000000 -12.000000 0.000000 0.000000 7.644444 0.000000 -2.000000 -19.733334 17.200001 1.000000 8.400000 1.500000 -2.500000 -84.000000 -11.000000 -32.000000 -146.000000 5.000000 12.000000 20.000000 20.000000 30.000000 -2.000000 0.000000 0.000000 60.000000 40.000000 -29.000000 93.000000 1.000000 -20.000000 25.000000 0.000000 -1.000000 1.000000 8.000000 -0.468043 22.933332 -2.343591 -1.284068 28.252846 8.000000 0.853471 -1.415801 -0.198414 0.855532 8.885759 1.404574 -0.821872 18.322771 0.584050 -0.616488 
-8.500000 46.000000 -5.000000 0.000000 0.000000 1.000000 3.000000 0.000000 -2.000000 -12.000000 0.000000 0.000000 7.466667 0.000000 -2.000000 -19.600000 15.800000 1.000000 8.600000 2.000000 -1.666667 -84.000000 -11.000000 -32.000000 -146.000000 5.000000 14.666667 20.000000 20.000000 30.000000 -2.000000 0.000000 0.000000 60.000000 40.000000 -29.000000 93.000000 0.666667 -20.000000 25.000000 0.000000 -1.000000 1.000000 5.000000 -0.468043 24.066668 -2.343591 -1.284068 29.241852 8.000000 0.853471 -1.415801 -0.214949 0.855532 8.709572 1.404574 -0.821872 18.201078 0.584050 -0.616488 
